Land_normalized_Motion_pl02
version=1
nRows=14
nColumns=43
inDegrees=yes
endheader
time		pelvis_tilt		pelvis_list		pelvis_rotation		pelvis_tx		pelvis_ty		pelvis_tz		hip_flexion_r		hip_adduction_r		hip_rotation_r		knee_angle_r		ankle_angle_r		subtalar_angle_r		mtp_angle_r		hip_flexion_l		hip_adduction_l		hip_rotation_l		knee_angle_l		ankle_angle_l		subtalar_angle_l		mtp_angle_l		lumbar_extension		lumbar_bending		lumbar_rotation		neck_flexion		neck_lateral_bending		neck_rotation		arm_flex_r		arm_add_r		arm_rot_r		elbow_flex_r		pro_sup_r		wrist_flex_r		wrist_dev_r		hand_finger_flex_r		arm_flex_l		arm_add_l		arm_rot_l		elbow_flex_l		pro_sup_l		wrist_flex_l		wrist_dev_l		hand_finger_flex_l		
1.050732		2.374506		-2.870646		91.029143		-0.023706		0.719046		0.505572		61.114603		-9.564045		-11.240943		-79.180550		22.547218		-0.447116		-3.004430		63.232960		-7.677239		-1.618591		-80.277088		25.684055		-5.717805		-19.030730		-33.727631		-0.787016		3.563051		-6.179851		0.688069		-0.248967		-54.709314		-8.155462		-54.097186		38.121567		89.372422		-23.603785		-17.016748		39.606346		-54.450602		-14.006963		-45.051522		33.237322		93.315152		-43.202667		-7.559586		78.642931		
1.053662		2.453606		-3.020650		91.098604		-0.023783		0.708051		0.504013		62.883200		-9.720698		-10.916378		-81.721665		22.664658		-0.751714		-3.033000		65.274004		-7.614828		-1.185343		-82.989299		25.289972		-5.990945		-18.904849		-34.430363		-0.682307		3.721567		-4.650325		0.546677		-0.448089		-53.329853		-8.380114		-53.216405		38.719191		88.550474		-24.172829		-17.681416		39.927739		-52.611877		-14.300457		-44.224084		33.949281		93.447871		-43.013741		-7.888792		78.848788		
1.056591		2.539663		-3.185094		91.144705		-0.023893		0.697167		0.502303		64.659593		-9.864980		-10.586431		-84.232748		22.644601		-0.999715		-3.040294		67.315748		-7.555844		-0.759276		-85.647657		24.793446		-6.279982		-18.745229		-35.073207		-0.575704		3.900968		-3.271079		0.398836		-0.656689		-51.966264		-8.662870		-52.318423		39.355002		87.662892		-24.809095		-18.423297		40.277695		-50.778961		-14.604690		-43.373557		34.710155		93.598167		-42.806338		-8.245089		79.105272		
1.059520		2.575834		-2.954447		91.141848		-0.023981		0.687415		0.500452		65.941659		-9.984176		-10.184401		-86.635041		22.636223		-1.028367		-2.978794		68.811809		-7.554308		-0.460248		-88.169110		24.416120		-6.350429		-18.692026		-36.201360		-0.556681		4.051088		-1.704112		0.363080		-0.736305		-50.445407		-8.957091		-51.810563		40.126419		87.592761		-25.022459		-18.800216		40.375035		-48.908177		-14.839865		-42.660436		35.660867		93.870533		-42.581572		-8.475372		79.337770		
1.062449		2.530116		-3.200233		91.088013		-0.024181		0.676676		0.498441		67.814892		-10.112846		-9.650688		-89.081773		22.448858		-1.184717		-2.443533		70.783286		-7.491584		-0.310063		-90.637435		23.732991		-7.099683		-17.954203		-36.650198		-0.589240		4.232055		-0.720999		0.140183		-1.142930		-49.127711		-9.352927		-50.672954		40.770699		86.292686		-26.369080		-20.285407		41.044503		-47.045509		-15.185622		-41.859651		36.405058		94.312531		-42.302866		-9.044697		80.648329		
1.065379		2.556045		-2.836078		91.060837		-0.024374		0.667673		0.496300		68.844706		-10.201703		-9.231543		-91.330593		22.401369		-1.125819		-2.326824		71.932504		-7.494714		-0.087434		-92.906832		23.532891		-7.121618		-17.836200		-37.866157		-0.598417		4.382549		0.639224		0.187648		-1.118889		-47.549235		-9.797950		-50.179246		41.570923		86.350966		-26.504465		-20.578129		41.162444		-45.161965		-15.408441		-41.161405		37.533392		94.580337		-42.106895		-9.276284		80.931736		
1.068308		2.476313		-2.439957		90.966097		-0.024510		0.658986		0.494070		69.823088		-10.273213		-8.708447		-93.512905		22.370660		-1.041112		-2.097126		72.880729		-7.501477		-0.038963		-95.020777		23.375413		-7.414471		-17.596383		-39.097300		-0.730109		4.472219		1.924623		0.187561		-1.201537		-45.923267		-10.253940		-49.699528		42.433135		86.508484		-26.915734		-21.145579		41.280673		-43.271981		-15.681160		-40.395259		38.618322		94.908119		-41.782225		-9.590337		81.649358		
1.071237		2.149315		-1.911309		90.807992		-0.024677		0.650898		0.491814		70.655274		-10.409476		-7.941813		-95.617768		22.364948		-0.889440		-1.367196		73.455638		-7.434146		-0.302349		-96.922687		23.254356		-7.970549		-16.792598		-40.470079		-1.121987		4.431137		3.114226		0.240899		-1.301821		-44.217461		-10.747713		-49.093781		43.250673		86.674791		-27.755414		-22.025060		41.734217		-41.315726		-15.991030		-39.718058		39.702492		95.229880		-41.602130		-10.116465		83.521073		
1.074167		2.019527		-1.514695		90.752787		-0.024992		0.642597		0.489573		71.495432		-10.515476		-7.423067		-97.592970		22.512952		-0.878344		-0.829162		74.154550		-7.355456		-0.343431		-98.767340		23.482912		-8.315917		-16.190738		-41.653000		-1.286849		4.409611		4.210803		0.351288		-1.283540		-42.610085		-11.341237		-48.511796		44.245969		86.871468		-28.063676		-22.506419		42.108715		-39.506344		-16.198222		-39.036241		41.103324		95.457233		-41.578058		-10.556194		84.685903		
1.077096		1.797700		-0.978609		90.654300		-0.025321		0.635062		0.487454		72.120365		-10.607929		-6.819943		-99.420047		22.641334		-0.857970		-0.287863		74.516036		-7.277672		-0.525663		-100.398108		23.741051		-8.731058		-15.615711		-43.044552		-1.542659		4.336838		5.439239		0.444053		-1.287810		-40.859398		-11.925297		-48.114482		45.267351		87.522301		-28.490502		-22.975652		42.332425		-37.606113		-16.504878		-38.176497		42.459338		95.477623		-41.388478		-10.968018		86.004313		
1.080025		1.791758		-0.719995		90.644875		-0.025495		0.627022		0.485323		72.909741		-10.636102		-6.488502		-101.130911		22.888097		-0.930674		-0.075607		75.202246		-7.218692		-0.438007		-102.012266		24.234839		-9.056408		-15.374238		-44.053263		-1.588524		4.292958		6.453476		0.543314		-1.275375		-39.179701		-12.581360		-47.614278		46.393882		87.884878		-28.516147		-23.269498		42.443190		-35.844854		-16.783140		-37.343509		43.952615		95.647102		-41.202601		-11.299793		86.516218		
1.082955		1.571188		-0.285817		90.615911		-0.025716		0.620041		0.483557		73.475049		-10.713137		-5.942219		-102.693381		23.109527		-0.942769		0.326452		75.446857		-7.108221		-0.645196		-103.296293		24.697119		-9.380148		-14.949590		-45.404050		-1.837735		4.080463		7.917946		0.772140		-1.190768		-37.281229		-13.242875		-47.177442		47.508025		88.620299		-28.829834		-23.593547		42.654459		-33.952244		-17.193512		-36.393154		45.419061		95.568778		-41.005376		-11.705871		87.805186		
1.085884		1.598849		-0.125426		90.618300		-0.025996		0.612287		0.481693		74.226736		-10.716373		-5.692895		-104.179187		23.512838		-1.083857		0.478605		76.056218		-7.040339		-0.575560		-104.646266		25.449617		-9.756202		-14.761791		-46.286412		-1.836803		4.016637		8.820206		0.847196		-1.169656		-35.657917		-14.021858		-46.571039		48.833951		89.004315		-28.770795		-23.885018		42.777754		-32.287274		-17.521207		-35.474730		47.184200		95.719431		-40.818865		-12.061455		88.242930		
1.088813		1.365717		0.259290		90.593851		-0.026218		0.605650		0.480017		74.706637		-10.792931		-5.188571		-105.545397		23.912413		-1.107843		1.060233		76.196877		-6.937720		-0.818321		-105.750454		26.166069		-10.069321		-14.162403		-47.536466		-2.086147		3.701678		10.129387		1.075106		-1.058650		-33.766256		-14.798719		-45.955042		50.142555		89.797741		-29.140671		-24.010158		43.407097		-30.539304		-18.013502		-34.303766		48.872763		95.144834		-41.087897		-12.572691		89.304249		
